<svg xmlns="http://www.w3.org/2000/svg" xmlns:xlink="http://www.w3.org/1999/xlink" style="enable-background:new 0 0 234 161" id="Livello_1" x="0" y="0" version="1.1" viewBox="0 0 234 161" xml:space="preserve"><style type="text/css">.st0{fill:#fff;stroke:#6fd6f4}.st1{stroke:url(#SVGID_1_)}.st1,.st2,.st3{opacity:.2;fill:none;stroke-width:.5;enable-background:new}.st2{stroke:url(#SVGID_2_)}.st3{stroke:url(#SVGID_3_)}.st4{fill:#f1f7fd}.st5{opacity:.2;enable-background:new}.st5,.st6{fill:#6fd6f4}.st7{opacity:.4}.st7,.st8,.st9{fill:#249edb;stroke:#249edb;enable-background:new}.st8{opacity:.2}.st9{opacity:.1}.st10{stroke:url(#SVGID_4_)}.st10,.st11,.st12,.st13{opacity:.4;fill:none;stroke-width:.25;enable-background:new}.st14,.st15,.st16,.st17{opacity:.4}.st14,.st15,.st16,.st17,.st18{fill:none;enable-background:new}.st11{stroke:url(#SVGID_5_)}.st12{stroke:url(#SVGID_6_)}.st13{stroke:url(#SVGID_7_)}.st14{stroke:url(#SVGID_8_)}.st14,.st15,.st16,.st17{stroke-width:.38}.st15{stroke:url(#SVGID_9_)}.st16{stroke:url(#SVGID_10_)}.st17{stroke:url(#SVGID_11_)}.st18{opacity:.2;stroke:url(#SVGID_12_);stroke-width:.5}.st19{fill:url(#SVGID_13_)}.st20{fill:none;stroke:url(#SVGID_14_);stroke-width:7.92}.st21{fill:#2469b9}</style><circle cx="89.7" cy="31.6" r="2.8" class="st0"/><circle cx="198.6" cy="138.8" r="2" class="st0"/><linearGradient id="SVGID_1_" x1="-310.538" x2="-309.454" y1="49.761" y2="48.782" gradientTransform="matrix(7.27 0 0 13.94 2336.6599 -643.6487)" gradientUnits="userSpaceOnUse"><stop style="stop-color:#6fd6f4" offset="0"/><stop style="stop-color:#6dd4f3" offset=".03"/><stop style="stop-color:#249edb" offset="1"/></linearGradient><path d="M86.7,36.3c-2.9,4.4-5.3,9.1-7.3,13.9" class="st1"/><linearGradient id="SVGID_2_" x1="-356.454" x2="-356.17" y1="27.248" y2="25.172" gradientTransform="matrix(112.73 0 0 26.8024 40316.6719 -679.7685)" gradientUnits="userSpaceOnUse"><stop style="stop-color:#6fd6f4" offset="0"/><stop style="stop-color:#6dd4f3" offset=".03"/><stop style="stop-color:#249edb" offset="1"/></linearGradient><path d="M206.6,20C181.9-1.7,144.9-6.1,115.9,9.6c-8.3,4.5-15.7,10.4-22,17.4" class="st2"/><linearGradient id="SVGID_3_" x1="-340.783" x2="-339.312" y1="10.328" y2="9.672" gradientTransform="matrix(18.4604 0 0 71.72 6500.7173 -651.3392)" gradientUnits="userSpaceOnUse"><stop style="stop-color:#6fd6f4" offset="0"/><stop style="stop-color:#6dd4f3" offset=".03"/><stop style="stop-color:#249edb" offset="1"/></linearGradient><path d="M231.1,100.4c6.1-25.1,0.1-51.6-16.1-71.7" class="st3"/><path d="M107.8,109.8c-4.1,1.6-8,3.7-11.6,6.3c12.5,19.7,34.1,31.6,57.4,31.6s45-11.9,57.4-31.6	c-3.6-2.6-7.5-4.7-11.6-6.3C174.2,99.7,133.1,99.7,107.8,109.8z" class="st4"/><path d="M187.5,88.7c0,1.3,1.1,2.4,2.4,2.4h30.9c0.3-1.6,0.5-3.2,0.6-4.8h-31.5c-0.6,0-1.3,0.3-1.7,0.7	C187.7,87.4,187.5,88,187.5,88.7z" class="st5"/><path d="M204.1,93.5c-0.9,0-1.7,0.5-2.1,1.2c-0.4,0.7-0.4,1.7,0,2.4c0.4,0.7,1.2,1.2,2.1,1.2h15	c0.4-1.6,0.9-3.2,1.2-4.8C220.3,93.5,204.1,93.5,204.1,93.5z" class="st5"/><circle cx="211.1" cy="23.9" r="1.4" class="st6"/><path d="M65.2,22.9c-1-7-7-12.1-14-12.1c-0.6,0-1.2,0-1.8,0.1C44,5.4,35.9,3.6,28.6,6.1S16.1,15.3,15.4,23h-3.5	C5.6,23,0.5,28.1,0.5,34.3s5.1,11.3,11.4,11.3h53.4c6.3,0,11.3-5.1,11.3-11.3S71.5,23,65.2,22.9L65.2,22.9z" class="st7"/><path d="M25.5,111c0.5-3.4,3.4-5.9,6.8-5.9c0.3,0,0.6,0,0.9,0.1c2.7-2.7,6.6-3.6,10.2-2.4c3.6,1.3,6.1,4.5,6.5,8.3h1.8	c3,0.1,5.3,2.6,5.3,5.6s-2.4,5.4-5.3,5.6H25.5c-2,0.1-4-1-5-2.7s-1-3.9,0-5.7S23.4,111,25.5,111z" class="st8"/><path d="M189.7,46.2c0.2-1.6,1.6-2.7,3.2-2.8c0.1,0,0.3,0,0.4,0c1.2-1.2,3.1-1.7,4.7-1.1c1.7,0.6,2.8,2.1,3,3.8h0.8	c1.4,0.1,2.4,1.2,2.4,2.6c0,1.4-1.1,2.5-2.4,2.6h-12.1c-1,0.1-1.9-0.4-2.4-1.2s-0.5-1.9,0-2.7S188.8,46.1,189.7,46.2L189.7,46.2z" class="st9"/><path d="M90.2,65c2.2,0,4-1.8,4-4s-1.8-4-4-4H23.9c-2.2,0-4,1.8-4,4s1.8,4,4,4H90.2z" class="st5"/><path d="M103.8,77.1c2.2,0,4-1.8,4-4s-1.8-4-4-4H47.5c-2.2,0-4,1.8-4,4s1.8,4,4,4H103.8z" class="st5"/><linearGradient id="SVGID_4_" x1="-356.853" x2="-356.853" y1="8.059" y2="9.059" gradientTransform="matrix(136.0025 0 0 84.3709 48686.6172 -616.1504)" gradientUnits="userSpaceOnUse"><stop style="stop-color:#6fd6f4" offset="0"/><stop style="stop-color:#249edb" offset="1"/></linearGradient><path d="M85.7,80.1c-0.1,26.3,15.1,50.3,38.8,61.5c23.7,11.3,51.9,7.9,72.2-8.8s29.3-43.5,23-69" class="st10"/><linearGradient id="SVGID_5_" x1="-349.522" x2="-349.522" y1="18.818" y2="19.823" gradientTransform="matrix(35.96 0 0 36.13 12676.6211 -662.4691)" gradientUnits="userSpaceOnUse"><stop style="stop-color:#6fd6f4" offset="0"/><stop style="stop-color:#249edb" offset="1"/></linearGradient><path d="M127,17.5c-16.2,7-29.1,19.9-36,36.1" class="st11"/><linearGradient id="SVGID_6_" x1="-347.54" x2="-347.54" y1="379.707" y2="380.851" gradientTransform="matrix(30.1 0 0 1.7905 10615.1113 -667.905)" gradientUnits="userSpaceOnUse"><stop style="stop-color:#6fd6f4" offset="0"/><stop style="stop-color:#249edb" offset="1"/></linearGradient><path d="M169.2,13.9c-9.9-2.3-20.2-2.4-30.1-0.2" class="st12"/><linearGradient id="SVGID_7_" x1="-347.327" x2="-347.327" y1="28.106" y2="29.114" gradientTransform="matrix(29.64 0 0 24.19 10490.6094 -662.4813)" gradientUnits="userSpaceOnUse"><stop style="stop-color:#6fd6f4" offset="0"/><stop style="stop-color:#249edb" offset="1"/></linearGradient><path d="M209.9,41.7c-7.4-10.7-17.7-19.1-29.6-24.2" class="st13"/><linearGradient id="SVGID_8_" x1="-354.38" x2="-354.38" y1="10.214" y2="9.212" gradientTransform="matrix(69.1 0 0 73.82 24595.7168 -599.9241)" gradientUnits="userSpaceOnUse"><stop style="stop-color:#6fd6f4" offset="0"/><stop style="stop-color:#6dd4f3" offset=".03"/><stop style="stop-color:#249edb" offset="1"/></linearGradient><path d="M79.7,80.1c0,39,30.2,71.3,69.1,73.8" class="st14"/><linearGradient id="SVGID_9_" x1="-352.79" x2="-352.79" y1="18.217" y2="17.21" gradientTransform="matrix(53.13 0 0 39.5 18854.4414 -672.7707)" gradientUnits="userSpaceOnUse"><stop style="stop-color:#6fd6f4" offset="0"/><stop style="stop-color:#6dd4f3" offset=".03"/><stop style="stop-color:#249edb" offset="1"/></linearGradient><path d="M140.8,7.2c-22.9,4.1-42.6,18.7-53.1,39.5" class="st15"/><linearGradient id="SVGID_10_" x1="-353.466" x2="-353.466" y1="6.319" y2="5.316" gradientTransform="matrix(60.5423 0 0 127.88 21602.3848 -672.6812)" gradientUnits="userSpaceOnUse"><stop style="stop-color:#6fd6f4" offset="0"/><stop style="stop-color:#6dd4f3" offset=".03"/><stop style="stop-color:#249edb" offset="1"/></linearGradient><path d="M203.1,135.2c21-18.8,29.5-48,21.9-75.1c-7.6-27.2-30-47.6-57.8-52.8" class="st16"/><linearGradient id="SVGID_11_" x1="-340.428" x2="-340.428" y1="78.735" y2="77.696" gradientTransform="matrix(18.9 0 0 8.75 6619.0186 -537.8001)" gradientUnits="userSpaceOnUse"><stop style="stop-color:#6fd6f4" offset="0"/><stop style="stop-color:#6dd4f3" offset=".03"/><stop style="stop-color:#249edb" offset="1"/></linearGradient><path d="M175,150.9c6.7-2,13-5,18.9-8.8" class="st17"/><linearGradient id="SVGID_12_" x1="-357.004" x2="-356.793" y1="9.199" y2="8.6" gradientTransform="matrix(134.35 0 0 81.8484 48079.7617 -601.7786)" gradientUnits="userSpaceOnUse"><stop style="stop-color:#6fd6f4" offset="0"/><stop style="stop-color:#6dd4f3" offset=".03"/><stop style="stop-color:#249edb" offset="1"/></linearGradient><path d="M73.8,78.2c0,0.6,0,1.2,0,1.8c0,31.8,18.8,60.6,48,73.3s63,7,86.4-14.6" class="st18"/><linearGradient id="SVGID_13_" x1="-354.753" x2="-354.753" y1="11.074" y2="12.074" gradientTransform="matrix(75.83 0 0 61.41 27054.5293 -606.941)" gradientUnits="userSpaceOnUse"><stop style="stop-color:#229edb" offset="0"/><stop style="stop-color:#258ed1" offset=".14"/><stop style="stop-color:#2a6bbb" offset=".51"/><stop style="stop-color:#2e55ad" offset=".81"/><stop style="stop-color:#2f4da8" offset="1"/></linearGradient><path d="M123.7,73.1h59.8c4.4,0,8,3.6,8,8v45.4c0,4.4-3.6,8-8,8h-59.8c-4.4,0-8-3.6-8-8V81.1	C115.7,76.6,119.3,73.1,123.7,73.1z" class="st19"/><linearGradient id="SVGID_14_" x1="-352.923" x2="-352.923" y1="11.844" y2="10.78" gradientTransform="matrix(54.74 0 0 62.71 19472.9707 -668.3504)" gradientUnits="userSpaceOnUse"><stop style="stop-color:#229edb" offset="0"/><stop style="stop-color:#258ed1" offset=".14"/><stop style="stop-color:#2a6bbb" offset=".51"/><stop style="stop-color:#2e55ad" offset=".81"/><stop style="stop-color:#2f4da8" offset="1"/></linearGradient><path d="M181.3,74.4V39c0-15.1-12.3-27.4-27.4-27.4S126.6,23.9,126.6,39v35.4" class="st20"/><rect width="62.8" height="47.4" x="122.3" y="80.6" class="st6"/><path d="M160.6,96.5c0-3.4-2.4-6.3-5.7-6.9s-6.6,1.3-7.7,4.5c-1.1,3.2,0.2,6.7,3.1,8.4v10.2h6.8v-10.2	C159.2,101.3,160.6,99,160.6,96.5z" class="st21"/><circle cx="96.6" cy="116.4" r="2" class="st6"/></svg>