<svg xmlns="http://www.w3.org/2000/svg" version="1.1" viewBox="0 0 238 198"><style type="text/css">.st0{fill:#f1f7fc}.st1{fill:#6ad7f7;fill-opacity:.2}.st2{fill-rule:evenodd;clip-rule:evenodd;fill:#06c}.st3{fill:#6ad7f7}.st4{fill:none;stroke:#fff;stroke-width:2;stroke-linecap:square}.st5,.st6{fill-rule:evenodd;clip-rule:evenodd;fill:url(#SVGID_1_)}.st6{fill:#0091e0}</style><circle cx="124" cy="99" r="99" class="st0"/><path d="M52,72c-4.4,0-8,3.6-8,8s3.6,8,8,8h90.1c4.4,0,8-3.6,8-8s-3.6-8-8-8H52z" class="st1"/><path d="M8,96c-4.4,0-8,3.6-8,8s3.6,8,8,8h104.6c4.4,0,8-3.6,8-8s-3.6-8-8-8H8z" class="st1"/><path d="M70,120c-4.4,0-8,3.6-8,8s3.6,8,8,8h104.6c4.4,0,8-3.6,8-8s-3.6-8-8-8H70z" class="st1"/><path d="M122.4,69.8h112.1c1.4,0,2.6,1.2,2.6,2.6v70.7c0,1.4-1.2,2.6-2.6,2.6H122.4c-1.4,0-2.6-1.2-2.6-2.6V72.4 C119.8,70.9,121,69.8,122.4,69.8z" class="st2"/><path d="M116.6,68.5h112.1c1.4,0,2.6-1.2,2.6-2.6v-4.8c0-0.8-0.4-1.6-1.1-2.1l-57.6-41l-57.6,41 c-0.7,0.5-1.1,1.3-1.1,2.1v4.8C114,67.4,115.2,68.5,116.6,68.5z" class="st2"/><rect width="104.2" height="68.9" x="119.8" y="25" class="st3"/><path d="M142.5,49.5H193" class="st4"/><path d="M142.5,62.2h62" class="st4"/><linearGradient id="SVGID_1_" x1="-175.983" x2="-175.983" y1="515.652" y2="514.652" gradientTransform="matrix(117.314 0 0 -75.9839 20817.8965 39244.7148)" gradientUnits="userSpaceOnUse"><stop offset="0" style="stop-color:#009fe8"/><stop offset="1" style="stop-color:#06c"/></linearGradient><path d="M118,63.7l54.5,22.9l54.8-22.9c1.5-0.6,3.2,0.1,3.8,1.6c0.1,0.4,0.2,0.7,0.2,1.1v70.2c0,1.6-1.3,2.9-2.9,2.9 H116.9c-1.6,0-2.9-1.3-2.9-2.9V66.4c0-1.6,1.3-2.9,2.9-2.9C117.3,63.5,117.7,63.5,118,63.7z" class="st5"/><path d="M116.6,139.5h112.1c1.4,0,2.6-1.2,2.6-2.6V132c0-0.8-0.3-1.5-0.9-2l-57.7-49.5L114.9,130 c-0.6,0.5-0.9,1.2-0.9,2v4.9C114,138.4,115.2,139.5,116.6,139.5z" class="st6"/></svg>