<svg xmlns="http://www.w3.org/2000/svg" version="1.1" viewBox="0 0 1400 245"><style type="text/css">.st0{fill:url(#gradient-1)}.st0,.st1,.st2{opacity:.2;fill-rule:evenodd;clip-rule:evenodd}.st1{fill:url(#gradient-2)}.st2{fill:url(#gradient-3)}</style><linearGradient id="gradient-1" x1="401.784" x2="401.784" y1="541.85" y2="541.157" gradientTransform="matrix(1074 0 0 -172.0001 -430287 93324.0703)" gradientUnits="userSpaceOnUse"><stop offset="0" style="stop-color:#06c;stop-opacity:.5"/><stop offset="1" style="stop-color:#fff;stop-opacity:0"/></linearGradient><path d="M1059,245c90.4-134,193.8-160.8,341-70c0,32.7,0,17.6,0,70" class="st0"/><linearGradient id="gradient-2" x1="402.126" x2="402.126" y1="542.157" y2="541.157" gradientTransform="matrix(1074 0 0 -172.0001 -431044 93251.0703)" gradientUnits="userSpaceOnUse"><stop offset=".033" style="stop-color:#06c;stop-opacity:.5"/><stop offset="1" style="stop-color:#fff;stop-opacity:0"/></linearGradient><path d="M302,172c90.4-134,209.2-155.6,356.4-64.8c220.7,136.2,300.5-173.4,482.9-94 C1262.9,66.2,1341.1,119.1,1376,172" class="st1"/><linearGradient id="gradient-3" x1="402.169" x2="402.169" y1="542.156" y2="541.157" gradientTransform="matrix(1074 0 0 -172.0001 -431439 93294.0703)" gradientUnits="userSpaceOnUse"><stop offset=".033" style="stop-color:#06c;stop-opacity:.5"/><stop offset="1" style="stop-color:#fff;stop-opacity:0"/></linearGradient><path d="M0,215c0-48.3-0.1-92.6-0.1-92.6s119.1-66.2,263.4,27.8c217.3,141.7,300.5-173.4,482.9-94 C867.9,109.2,946.1,162.1,981,215" class="st2"/></svg>