<svg xmlns="http://www.w3.org/2000/svg" version="1.1" viewBox="0 0 1400 387"><style type="text/css">.st0{fill-rule:evenodd;clip-rule:evenodd;fill:url(#gradient-1)}.st1,.st2{opacity:.5;enable-background:new}.st1{fill-rule:evenodd;clip-rule:evenodd;fill:url(#gradient-2)}.st2{fill:url(#gradient-3)}.st2,.st3,.st4,.st5{fill-rule:evenodd;clip-rule:evenodd}.st3{fill:url(#gradient-4)}.st4,.st5{opacity:.5}.st4{fill:url(#gradient-5);enable-background:new}.st5{fill:#c8daea}.st6{opacity:.5;fill:none;stroke:#c3d7e7;stroke-width:.9}</style><linearGradient id="gradient-1" x1="402.126" x2="402.126" y1="613.57" y2="612.57" gradientTransform="matrix(1074 0 0 -172.0001 -430669 105523.0781)" gradientUnits="userSpaceOnUse"><stop offset="0" style="stop-color:#f0f7fd"/><stop offset="1" style="stop-color:#fff"/></linearGradient><path d="M677,161C767.4,27,886.2,5.4,1033.4,96.2c220.7,136.2,300.5-173.4,482.9-94C1637.9,55.2,1716.1,108.1,1751,161" class="st0"/><linearGradient id="gradient-2" x1="402.126" x2="402.126" y1="613.57" y2="612.57" gradientTransform="matrix(1074 0 0 -172.0001 -431064 105566.0781)" gradientUnits="userSpaceOnUse"><stop offset="0" style="stop-color:#a6c7f1;stop-opacity:0"/><stop offset="1" style="stop-color:#fff"/></linearGradient><path d="M282,204c90.4-134,209.2-155.6,356.4-64.8c220.7,136.2,300.5-173.4,482.9-94C1242.9,98.2,1321.1,151.1,1356,204" class="st1"/><linearGradient id="gradient-3" x1="402.126" x2="402.126" y1="613.57" y2="612.57" gradientTransform="matrix(1074 0 0 -172.0001 -430722 105700.0781)" gradientUnits="userSpaceOnUse"><stop offset="0" style="stop-color:#f0f7fd"/><stop offset="1" style="stop-color:#fff"/></linearGradient><path d="M624,338c90.4-134,209.2-155.6,356.4-64.8c220.7,136.2,300.5-173.4,482.9-94 c121.6,52.9,199.9,105.8,234.7,158.8" class="st2"/><linearGradient id="gradient-4" x1="402.126" x2="402.126" y1="613.57" y2="612.57" gradientTransform="matrix(1074 0 0 -172.0001 -431479 105627.0781)" gradientUnits="userSpaceOnUse"><stop offset="0" style="stop-color:#f0f7fd"/><stop offset="1" style="stop-color:#fff"/></linearGradient><path d="M-133,265c90.4-134,209.2-155.6,356.4-64.8c220.7,136.2,300.5-173.4,482.9-94C827.9,159.2,906.1,212.1,941,265" class="st3"/><linearGradient id="gradient-5" x1="402.126" x2="402.126" y1="613.57" y2="612.57" gradientTransform="matrix(1074 0 0 -172.0001 -431874 105670.0781)" gradientUnits="userSpaceOnUse"><stop offset="0" style="stop-color:#a6c7f1;stop-opacity:0"/><stop offset="1" style="stop-color:#fff"/></linearGradient><path d="M-528,308c90.4-134,209.2-155.6,356.4-64.8c220.7,136.2,300.5-173.4,482.9-94C432.9,202.2,511.1,255.1,546,308" class="st4"/><circle cx="1229" cy="324" r="4" class="st5"/><circle cx="1229" cy="324" r="10" class="st6"/><circle cx="1318" cy="376" r="4" class="st5"/><circle cx="1318" cy="376" r="10" class="st6"/><circle cx="164" cy="64" r="4" class="st5"/><circle cx="164" cy="64" r="10" class="st6"/></svg>