<svg xmlns="http://www.w3.org/2000/svg" version="1.1" viewBox="0 0 265.2 190.4"><style type="text/css">.st0{fill-rule:evenodd;clip-rule:evenodd;fill:#f1f7fc}.st1{fill:#d2eaff}.st2,.st3{fill-rule:evenodd;clip-rule:evenodd;fill:#0093e2}.st3{fill:url(#SVGID_1_)}.st4{fill:none;stroke:#6ad7f7;stroke-width:2.0995;stroke-linecap:round}.st5{fill:#009be6}.st5,.st6,.st7{fill-rule:evenodd;clip-rule:evenodd}.st6{fill:#06c}.st7{fill:#3cb3f3}.st8{fill:none;stroke:url(#SVGID_2_);stroke-width:4.32}.st10,.st9{fill-rule:evenodd;clip-rule:evenodd}.st9{fill:#dbe6f0}.st10{fill:url(#SVGID_3_)}.st11{fill:none;stroke:#6ad7f7;stroke-width:1.44;stroke-linecap:round}</style><ellipse cx="197.5" cy="165.5" class="st0" rx="67.8" ry="12.1"/><polygon points="32.5 29.2 11.6 37.1 32.5 45.8 32.5 56.6 0 41.8 0 33 32.5 18.3" class="st1"/><polygon points="42 56.8 65 0 74.5 3.4 51.4 60.2" class="st1"/><polygon points="104.7 37.1 83.8 29.2 83.8 18.3 116.3 33 116.3 41.8 83.8 56.6 83.8 45.8" class="st1"/><ellipse cx="96.7" cy="178.2" class="st0" rx="67.8" ry="12.1"/><path d="M22.2,45.9h149c3.3,0,6,2.7,6,6v104c0,3.3-2.7,6-6,6h-149c-3.3,0-6-2.7-6-6v-104C16.2,48.6,18.9,45.9,22.2,45.9 z" class="st2"/><linearGradient id="SVGID_1_" x1="-163.208" x2="-163.161" y1="512.243" y2="512.679" gradientTransform="matrix(150 0 0 -96 24574.6875 49295.1289)" gradientUnits="userSpaceOnUse"><stop offset="0" style="stop-color:#06c"/><stop offset="1" style="stop-color:#009fe7"/></linearGradient><path d="M27.7,52.4h138c3.3,0,6,2.7,6,6v84c0,3.3-2.7,6-6,6h-138c-3.3,0-6-2.7-6-6v-84C21.7,55.1,24.4,52.4,27.7,52.4z" class="st3"/><path d="M41.2,77.2h58" class="st4"/><path d="M41.2,85.3H116" class="st4"/><path d="M41.2,94h56.3" class="st4"/><path d="M41.2,113.4h58" class="st4"/><path d="M41.2,121.4H116" class="st4"/><path d="M41.2,130.2h56.3" class="st4"/><path d="M70.5,161.9H123c1.6,0,2.9,1.3,2.9,2.9v1.5c0,1.6-1.3,2.9-2.9,2.9H70.5c-1.6,0-2.9-1.3-2.9-2.9v-1.5 C67.6,163.2,68.9,161.9,70.5,161.9z" class="st5"/><path d="M64.3,169.2h64.8c1.4,0,2.6,1.1,2.6,2.6l0,0c0,1.4-1.1,2.6-2.6,2.6H64.3c-1.4,0-2.6-1.1-2.6-2.6l0,0 C61.7,170.4,62.9,169.2,64.3,169.2z" class="st5"/><path d="M189.7,81.1c2,0,3.6,1.6,3.6,3.6l0,4.4l41.8,0c2,0,3.6,1.6,3.6,3.6v43c0,2-1.6,3.6-3.6,3.6H165 c-2,0-3.6-1.6-3.6-3.6v-43v-8c0-2,1.6-3.6,3.6-3.6H189.7z" class="st6"/><path d="M186.5,77.9c2,0,3.6,1.6,3.6,3.6l0,4.4l41.8,0c2,0,3.6,1.6,3.6,3.6v43c0,2-1.6,3.6-3.6,3.6h-70.1 c-2,0-3.6-1.6-3.6-3.6v-43v-8c0-2,1.6-3.6,3.6-3.6H186.5z" class="st7"/><linearGradient id="SVGID_2_" x1="-161.092" x2="-161.092" y1="506.303" y2="505.303" gradientTransform="matrix(51.4483 0 0 -32.411 8508.0225 16431.875)" gradientUnits="userSpaceOnUse"><stop offset="0" style="stop-color:#06c"/><stop offset="1" style="stop-color:#0260bd"/></linearGradient><path d="M224.4,22.1c-4.5,0-8.6,2.3-10.9,6.1l-0.9,1.4l-1.6-0.5c-1.2-0.4-2.5-0.6-3.8-0.6c-7.1,0-12.9,5.8-12.9,13 s5.8,13,12.9,13c3.1,0,6.1-1.1,8.4-3.1l1-0.9l1.3,0.6c1.9,0.9,4.2,1.3,6.5,1.3c1.8,0,3.6-0.3,5.2-0.8l0.8-0.3l0.7,0.3 c1.3,0.5,2.6,0.8,4,0.8c5.9,0,10.7-4.8,10.7-10.8c0-5-3.4-9.4-8.2-10.5l-1-0.3l-0.4-1C234.1,25.2,229.5,22.1,224.4,22.1z" class="st8"/><path d="M240.2,44.4h-22.4c-6.8,6.2-7.4,12-1.7,17.4s5.2,10.4-1.6,15H239c4-7,3.4-12-1.8-15S233,53,240.2,44.4z" class="st9"/><linearGradient id="SVGID_3_" x1="-157.908" x2="-157.908" y1="507.816" y2="506.816" gradientTransform="matrix(25.7392 0 0 -38.1714 4287.3979 19427.0469)" gradientUnits="userSpaceOnUse"><stop offset="0" style="stop-color:#009fe8"/><stop offset="1" style="stop-color:#06c"/></linearGradient><path d="M233.4,43h-18c-0.2,0-0.4,0.1-0.6,0.3c-5.8,7.2-6.2,13.9-1.2,20.2c4.6,5.9,4.6,11.4-0.1,16.5 c-0.3,0.3-0.3,0.7,0,1c0.1,0.1,0.3,0.2,0.5,0.2h19.2c0.3,0,0.6-0.2,0.7-0.4c3.3-8,2.7-13.7-1.8-17.2c-4.4-3.5-3.7-9.9,2-19.4 c0.2-0.3,0.1-0.8-0.2-1C233.6,43,233.5,43,233.4,43z" class="st10"/><path d="M215.8,49.1h8.9" class="st11"/><path d="M215.8,53.4h11.8" class="st11"/><path d="M215.8,57.8h8.9" class="st11"/></svg>