<svg xmlns="http://www.w3.org/2000/svg" version="1.1" viewBox="0 0 239 179"><style type="text/css">.email-sent-0{fill-rule:evenodd;clip-rule:evenodd;fill:#f1f7fc}.email-sent-1{fill:#d2eaff}.email-sent-2{fill-rule:evenodd;clip-rule:evenodd;fill:url(#SVGID_1_)}.email-sent-3{fill:none;stroke:#6ad7f7;stroke-width:2.0995;stroke-linecap:round}.email-sent-4{fill-rule:evenodd;clip-rule:evenodd;fill:#06c}.email-sent-5{fill:#0093e2}.email-sent-5,.email-sent-6,.email-sent-7{fill-rule:evenodd;clip-rule:evenodd}.email-sent-6{fill:#3cb3f3}.email-sent-7{fill:url(#SVGID_2_)}.email-sent-8{fill:none;stroke:#fff;stroke-width:.5}.email-sent-9{fill-rule:evenodd;clip-rule:evenodd;fill:url(#SVGID_3_)}.email-sent-10{fill:none;stroke:#fff;stroke-width:.5;stroke-linecap:round}.email-sent-11,.email-sent-12{fill-rule:evenodd;clip-rule:evenodd;fill:#009de6}.email-sent-12{fill:#009be6}</style><ellipse cx="142.8" cy="166.9" class="email-sent-0" rx="67.8" ry="12.1"/><ellipse cx="194.6" cy="161.1" class="email-sent-0" rx="24" ry="4.7"/><ellipse cx="75.1" cy="166.9" class="email-sent-0" rx="67.8" ry="12.1"/><ellipse cx="123.9" cy="41.3" class="email-sent-0" rx="55.4" ry="12.1"/><ellipse cx="174.9" cy="26.7" class="email-sent-0" rx="55.4" ry="12.1"/><ellipse cx="132.6" cy="26.7" class="email-sent-0" rx="55.4" ry="12.1"/><ellipse cx="183.6" cy="12.1" class="email-sent-0" rx="55.4" ry="12.1"/><path d="M68.5,75.8v1c0,11-1.7,18-5.2,20.9c-1.2,1-2.5,1.6-3.8,2c-1.3,0.3-2.7,0.5-4.3,0.5c-1.6,0-3-0.2-4.2-0.5 s-2.1-0.7-2.7-1.2c-1.2-0.9-2.1-2-2.6-3c-5.1,3.1-9.6,4.6-13.5,4.6c-1.9,0-3.6-0.2-5-0.7c-1.4-0.5-2.9-1.4-4.3-2.7 c-2.9-2.6-4.3-7.7-4.3-15.2c0-7.6,1.2-13,3.5-16.3c2.4-3.3,6.4-5,12.2-5c2.2,0,4.7,0.5,7.5,1.5l1.4,0.5v-1.2h5.8v14.9 c0,9.1,0.3,14.5,0.9,16.2c0.3,0.7,0.6,1.3,1.1,1.9c0.5,0.6,1,0.9,1.6,1s1.6,0.2,3,0.2s2.6-0.3,3.5-1c1-0.7,1.8-2.4,2.4-5.2 c0.7-2.8,1-6.8,1-12.2v-1.1c0-9.6-2.1-16.6-6.4-20.9s-11.3-6.5-21.2-6.5s-17.2,2.5-22,7.4s-7.2,12.9-7.2,24s2.3,18.9,6.8,23.6 c4.6,4.7,12,7,22.4,7l11.1-0.8l0.2,5.2c-4.9,0.5-8.6,0.7-11.3,0.7c-6,0-11.1-0.6-15.3-1.7c-4.2-1.1-7.8-3.1-10.8-5.9 C3,102.5,0,93,0,79.2c0-12.5,3-21.7,8.9-27.5s14.7-8.6,26.2-8.6s20,2.7,25.3,8S68.5,64.7,68.5,75.8z M32.3,94.2 c2.2,0,6.1-1.2,11.4-3.6c-0.5-2.8-0.7-7.2-0.7-13.4V66.6c-3.1-1-5.8-1.5-8.1-1.5c-4.2,0-7.1,1.2-8.6,3.6S24,74.8,24,80.1 C24,89.5,26.8,94.2,32.3,94.2z" class="email-sent-1"/><linearGradient id="SVGID_1_" x1="-174.446" x2="-174.446" y1="506.616" y2="505.616" gradientTransform="matrix(58.2927 0 0 -77.4449 10313.9541 39261.1094)" gradientUnits="userSpaceOnUse"><stop offset="0" style="stop-color:#009fe8"/><stop offset="1" style="stop-color:#06c"/></linearGradient><path d="M118.8,26.3h52.5c1.6,0,2.9,1.3,2.9,2.9v71.6c0,1.6-1.3,2.9-2.9,2.9h-52.5c-1.6,0-2.9-1.3-2.9-2.9V29.2 C115.9,27.6,117.2,26.3,118.8,26.3z" class="email-sent-2"/><path d="M127.5,39.8h24" class="email-sent-3"/><path d="M127.5,47.9h31.1" class="email-sent-3"/><path d="M127.5,56.6h23.6" class="email-sent-3"/><path d="M51.4,84.8h112.1c1.4,0,2.6,1.2,2.6,2.6v70.7c0,1.4-1.2,2.6-2.6,2.6H51.4c-1.4,0-2.6-1.2-2.6-2.6V87.4 C48.8,85.9,50,84.8,51.4,84.8z" class="email-sent-4"/><path d="M45.6,78.9h112.1c1.4,0,2.6,1.2,2.6,2.6v70.7c0,1.4-1.2,2.6-2.6,2.6H45.6c-1.4,0-2.6-1.2-2.6-2.6V81.5 C43,80.1,44.2,78.9,45.6,78.9z" class="email-sent-5"/><path d="M45.6,78.9h112.1c1.4,0,2.6,1.2,2.6,2.6v4.8c0,0.8-0.4,1.6-1.1,2.1l-57.6,41l0,0l-57.6-41 C43.4,88,43,87.2,43,86.3v-4.8C43,80.1,44.2,78.9,45.6,78.9z" class="email-sent-6"/><linearGradient id="SVGID_2_" x1="-181.806" x2="-182.749" y1="509.287" y2="509.119" gradientTransform="matrix(-45.3992 -62.4867 33.6914 -24.4783 -25258.8906 1175.3859)" gradientUnits="userSpaceOnUse"><stop offset="0" style="stop-color:#007bd6"/><stop offset=".152" style="stop-color:#0097e2"/><stop offset=".215" style="stop-color:#009be3"/><stop offset="1" style="stop-color:#0082d8"/></linearGradient><path d="M174,140.8c4.6-11.3,5.9-18.3,3.9-21.1c-3.1-4.2-9.1-21.3-9.9-30.9c-0.6-6.4-5-12.6-13.5-18.5 c15.7,0.2,25.6,5.1,29.7,14.7c6.2,14.4,10.9,40.6,6.6,43.7c-2.8,2.1-6.7,8.5-11.7,19.3L174,140.8z" class="email-sent-7"/><path d="M180.5,139.1c5.3-6.1,7.2-11.4,5.8-15.8c-2.1-6.7-8.8-23.2-8.1-34.1c0.5-7.3-7.2-13.6-23-18.8" class="email-sent-8"/><linearGradient id="SVGID_3_" x1="-186.605" x2="-186.919" y1="509.504" y2="508.629" gradientTransform="matrix(-25.7874 -29.6651 46.7365 -40.6275 -28410.041 15250.4541)" gradientUnits="userSpaceOnUse"><stop offset="0" style="stop-color:#3cb3f3"/><stop offset=".555" style="stop-color:#0099e5"/><stop offset="1" style="stop-color:#06c"/></linearGradient><path d="M190.2,144.9c3.1-7.4,5.8-12.1,8.3-14.3c4.6-4,9.9-8.7,12.3-13.3c3.4-6.5-2.8-10.1-3.9-14.8 c-2.5-10.5-1-18.7,4.3-24.6c-6.2,1.6-12.4,6.4-18.6,14.4c-3.4,4.4-9.1,7.8-10.8,13.3c-2.5,8,4.4,12.5,3.9,17.5 c-0.6,5.6-7,9-4.3,14.9C181.5,138.1,184.4,140.4,190.2,144.9z" class="email-sent-9"/><path d="M186.5,141.1c8.8-7,12.2-16.5,10.3-28.3c-2.8-17.8,10.7-33.3,14.4-34.8" class="email-sent-10"/><path d="M157,133.7h53.2c1.4,0,2.6,1.1,2.6,2.6l0,0c0,1.4-1.1,2.6-2.6,2.6H157c-1.4,0-2.6-1.1-2.6-2.6l0,0 C154.5,134.8,155.6,133.7,157,133.7z" class="email-sent-4"/><path d="M142.5,138.8h67.8c1.4,0,2.6,1.1,2.6,2.6l0,0c0,1.4-1.1,2.6-2.6,2.6h-67.8c-1.4,0-2.6-1.1-2.6-2.6l0,0 C139.9,140,141,138.8,142.5,138.8z" class="email-sent-11"/><path d="M157.4,142.5h52.5c1.6,0,2.9,1.3,2.9,2.9v1.5c0,1.6-1.3,2.9-2.9,2.9h-52.5c-1.6,0-2.9-1.3-2.9-2.9v-1.5 C154.5,143.8,155.8,142.5,157.4,142.5z" class="email-sent-4"/><path d="M151.2,149.8H216c1.4,0,2.6,1.1,2.6,2.6l0,0c0,1.4-1.1,2.6-2.6,2.6h-64.8c-1.4,0-2.6-1.1-2.6-2.6l0,0 C148.6,150.9,149.8,149.8,151.2,149.8z" class="email-sent-12"/></svg>