<svg xmlns="http://www.w3.org/2000/svg" xmlns:xlink="http://www.w3.org/1999/xlink" style="enable-background:new 0 0 317 147" x="0" y="0" version="1.1" viewBox="0 0 317 147" xml:space="preserve"><style type="text/css">.st0{fill:none;stroke:#e8ecef;stroke-width:8.1;stroke-linecap:round}.st1{fill-rule:evenodd;clip-rule:evenodd;fill:#fff;stroke:#003666;stroke-width:1.8}.st2{fill:#06c}.st3{fill-rule:evenodd;clip-rule:evenodd;fill:#003666}.st4{fill:#00366a}.st5{fill:#fff}.st6{fill:#d6dee8}.st7{fill:#f7f9fa}.st8,.st9{fill-rule:evenodd;clip-rule:evenodd;fill:#d6dee8}.st9{fill:#73cdde}.st10{fill:#e6f1fd}.st10,.st11,.st12,.st13{fill-rule:evenodd;clip-rule:evenodd}.st11{fill:#fff;stroke:#0073e6}.st12{fill:#0073e6}.st13{fill:#06c}</style><g><path d="M214.4,12.4c29.1-8.1,49.9-9.6,62.5-4.8s23.4,14.8,32.4,29.8c2.1,8,3.2,18.3,3.2,30.9c0,18.9,0,32.5,0,45.7 s0,17.5,0,24.9s-38.9,2.8-55.3,2.1c-10.9-0.5-24.2-0.5-39.7,0" class="st0"/><polygon points="200.7 7.6 277 7.6 309.2 39.7 309.2 138.8 200.7 138.8" class="st1"/><path d="M239.3,100.7v-7.6L223.9,88l-1.9-0.7l1.9-0.7l15.4-5.2v-7.6l-24.9,10.3v6.3L239.3,100.7z M250.7,108.3 l15.4-44.5h-7.3l-15.4,44.5H250.7z M270.2,100.8l25.4-10.3V84l-25.4-10.3v7.6l16.2,5.3l1.7,0.6l-1.7,0.6l-16.1,5.4V100.8z" class="st2"/><polygon points="276.8 7.6 309.2 40 276.8 40" class="st3"/></g><g><path d="M214.4,131.8H49.9V22.1c0-5,4.1-9.1,9.1-9.1h146.2c5,0,9.1,4.1,9.1,9.1V131.8L214.4,131.8z" class="st4"/><path d="M207.1,122.9H57.3c-0.9,0-1.6-0.7-1.6-1.6V20.5c0-0.9,0.7-1.6,1.6-1.6h149.8c0.9,0,1.6,0.7,1.6,1.6v100.8 C208.7,122.2,208,122.9,207.1,122.9z" class="st5"/><path d="M226.6,128.8h-189c0,5,4.1,9.1,9.1,9.1h170.8C222.5,137.9,226.6,133.8,226.6,128.8L226.6,128.8L226.6,128.8z" class="st6"/><path d="M140.4,133.6h-16.3c-1.5,0-2.9-0.8-3.6-2l-1.6-2.8h26.5l-1.6,2.8C143.2,132.8,141.9,133.6,140.4,133.6z" class="st7"/><polygon points="1 68.5 60.8 68.5 60.8 64.5 1 64.5" class="st8"/><polygon points=".1 90.4 59.8 90.4 59.8 86.4 .1 86.4" class="st8"/><polygon points="7.7 103.2 67.4 103.2 67.4 99.3 7.7 99.3" class="st8"/></g><g><polygon points="158.5 60.9 158.5 67.1 115.6 87.7 75 67.1 75 60.9" class="st9"/><polygon points="75 60.4 158.5 60.4 158.5 60.2 75 60.2" class="st10"/><polygon points="158.5 60.2 158.5 54.1 115.6 33.4 75 54.1 75 60.2" class="st9"/><polygon points="152.9 84.1 97.6 102.9 83.5 61.4 138.8 42.6" class="st11"/><g><polygon points="108.5 72.5 101.7 78.5 110.8 79.3 111.8 82.3 99 80.8 98.2 78.4 107.4 69.5" class="st12"/><polygon points="116.1 83.9 117.3 62.4 120.2 62.5 118.9 84" class="st12"/><polygon points="133.9 67.5 124.9 66.9 123.9 63.9 136.7 65.3 137.5 67.8 128.3 76.7 127.2 73.7" class="st12"/></g><path d="M158.5,66.4v44.9c0,1.6-1.3,2.8-2.8,2.8H77.8c-1.6,0-2.8-1.3-2.8-2.8V66.4L115.6,87L158.5,66.4z" class="st13"/></g></svg>