<svg xmlns="http://www.w3.org/2000/svg" xmlns:xlink="http://www.w3.org/1999/xlink" id="Livello_1" x="0" y="0" version="1.1" viewBox="0 0 351 125" xml:space="preserve" style="enable-background:new 0 0 351 125"><style type="text/css">.st0{fill:#00366a}.st1{fill:#fff}.st2{fill:#d6dee8}.st3{fill:#f7f9fa}.st4{fill:#73cdde}.st4,.st5,.st6{fill-rule:evenodd;clip-rule:evenodd}.st5{fill:#06c}.st6{fill:#1b2679}.st7,.st8{fill:none;stroke:#e7ecef;stroke-width:7;stroke-linecap:round;stroke-linejoin:round}.st8{stroke:#00366a}</style><g><path d="M177.4,118.8H12.9V9.1C12.9,4.1,17,0,22,0h146.2c5,0,9.1,4.1,9.1,9.1L177.4,118.8L177.4,118.8z" class="st0"/><path d="M170.1,109.9H20.2c-0.9,0-1.6-0.7-1.6-1.6V7.5c0-0.9,0.7-1.6,1.6-1.6H170c0.9,0,1.6,0.7,1.6,1.6v100.8 C171.7,109.2,170.9,109.9,170.1,109.9z" class="st1"/><path d="M189.6,115.8H0.6c0,5,4.1,9.1,9.1,9.1h170.8C185.5,124.9,189.6,120.8,189.6,115.8L189.6,115.8L189.6,115.8z" class="st2"/><path d="M103.3,120.6H87c-1.5,0-2.9-0.8-3.6-2l-1.6-2.8h26.5l-1.6,2.8C106.2,119.8,104.8,120.6,103.3,120.6z" class="st3"/></g><g><path d="M109.2,64.1c0-21.8-14.7-42.2-36.5-42.2S32.5,43,32.5,64.8s17.7,39.5,39.5,39.5 C93.9,104.3,109.2,86,109.2,64.1" class="st4"/><path d="M74,65.9l28.2-25.5C95,32.4,81.1,27,70.3,27c-20.9,0-37.5,18.3-37.5,39.2s19.7,35.5,40.5,35.5 c12,0,24-3.4,31.2-13.1L74,65.9z" class="st5"/></g><g><path d="M158.4,98.3h-14.8c-3.4,0-6.1-2.2-6.1-4.8V27.1c0-2.7,2.7-4.8,6.1-4.8h14.8c3.4,0,6.1,2.2,6.1,4.8v66.3 C164.5,96.1,161.8,98.3,158.4,98.3" class="st5"/><path d="M190.3,98.6h-14.8c-3.4,0-6.1-2.2-6.1-4.8V40.2c0-2.7,2.7-4.8,6.1-4.8h14.8c3.4,0,6.1,2.2,6.1,4.8v53.5 C196.5,96.4,193.7,98.6,190.3,98.6" class="st6"/><path d="M210.1,97.5c-3.4,0-6.1-2.2-6.1-4.8V26.6c0-2.7,2.7-4.8,6.1-4.8h11.2c3.4,0,6.1,2.2,6.1,4.8v66.1 c0,2.7-2.7,4.8-6.1,4.8H210.1z" class="st4"/></g><g><polyline points="247.5 99 265.9 80.4 285.2 89.7 305.6 60 317.9 89.7 347.5 39" class="st7"/><polyline points="244.5 87 262.9 68.4 282.2 77.7 302.6 48 314.9 77.7 344.5 27" class="st8"/></g></svg>